<svg width="31" height="31" viewBox="0 0 31 31" fill="none" xmlns="http://www.w3.org/2000/svg">
<path d="M1.3397 6.20013H15.3361C15.758 8.12023 17.4727 9.56173 19.5176 9.56173C21.5626 9.56173 23.2773 8.12029 23.6991 6.20013H28.9184C29.426 6.20013 29.8376 5.78851 29.8376 5.28084C29.8376 4.77316 29.426 4.36155 28.9184 4.36155H23.6987C23.276 2.44242 21.559 1 19.5176 1C17.4752 1 15.759 2.44219 15.3365 4.36155H1.3397C0.832023 4.36155 0.420411 4.77316 0.420411 5.28084C0.420411 5.78851 0.832021 6.20013 1.3397 6.20013ZM17.0754 5.28325C17.0754 5.27998 17.0755 5.27664 17.0755 5.27337C17.0795 3.93081 18.175 2.83863 19.5176 2.83863C20.8584 2.83863 21.9539 3.92931 21.9597 5.27124L21.9599 5.28475C21.9578 6.62961 20.863 7.72321 19.5176 7.72321C18.1728 7.72321 17.0784 6.6307 17.0754 5.28664L17.0754 5.28325ZM28.9184 25.2455H23.6987C23.276 23.3265 21.559 21.884 19.5176 21.884C17.4752 21.884 15.759 23.3262 15.3365 25.2455H1.3397C0.832023 25.2455 0.420411 25.6571 0.420411 26.1648C0.420411 26.6726 0.832023 27.0841 1.3397 27.0841H15.3362C15.758 29.0042 17.4727 30.4457 19.5177 30.4457C21.5626 30.4457 23.2773 29.0042 23.6991 27.0841H28.9184C29.426 27.0841 29.8376 26.6726 29.8376 26.1648C29.8376 25.6571 29.426 25.2455 28.9184 25.2455ZM19.5176 28.6071C18.1728 28.6071 17.0784 27.5146 17.0754 26.1706L17.0754 26.1672C17.0754 26.1639 17.0755 26.1606 17.0755 26.1574C17.0795 24.8148 18.175 23.7226 19.5176 23.7226C20.8584 23.7226 21.9539 24.8132 21.9597 26.1551L21.9599 26.1686C21.958 27.5137 20.8631 28.6071 19.5176 28.6071ZM28.9184 14.8036H14.9219C14.5001 12.8835 12.7854 11.442 10.7404 11.442C8.69544 11.442 6.98074 12.8835 6.5589 14.8036H1.3397C0.832021 14.8036 0.42041 15.2152 0.42041 15.7229C0.42041 16.2306 0.832021 16.6422 1.3397 16.6422H6.55936C6.98206 18.5612 8.69906 20.0037 10.7404 20.0037C12.7828 20.0037 14.4991 18.5615 14.9215 16.6422H28.9184C29.426 16.6422 29.8376 16.2306 29.8376 15.7229C29.8376 15.2152 29.426 14.8036 28.9184 14.8036ZM13.1826 15.7204C13.1826 15.7238 13.1825 15.7271 13.1825 15.7303C13.1785 17.0729 12.083 18.1651 10.7404 18.1651C9.39967 18.1651 8.30411 17.0744 8.29831 15.7325L8.29813 15.7191C8.30014 14.374 9.39496 13.2806 10.7404 13.2806C12.0852 13.2806 13.1796 14.3731 13.1827 15.7172L13.1826 15.7204Z" fill="#01060D" stroke="#01060D" stroke-width="0.4"/>
</svg>
