<svg width="22" height="30" viewBox="0 0 22 30" fill="none" xmlns="http://www.w3.org/2000/svg">
<path d="M10.673 18.785C8.32064 18.785 6.41406 16.8781 6.41406 14.5261V4.2589C6.41406 1.90695 8.32064 0 10.673 0C13.0253 0 14.9319 1.90695 14.9319 4.2589V14.5261C14.9319 16.8784 13.0253 18.785 10.673 18.785Z" fill="#4183F3"/>
<path d="M9.00049 23.7222H12.3455V29.4452H9.00049V23.7222Z" fill="#35A551"/>
<path d="M17.9994 14.5132C17.9994 18.5597 14.72 21.8782 10.6731 21.8782C8.80034 21.8782 7.09215 21.1671 5.79692 20.0022L3.43945 22.3596C5.34126 24.1138 7.88202 25.186 10.6734 25.186C16.5676 25.186 21.3463 20.4081 21.3463 14.5132H17.9994Z" fill="#E64236"/>
<path d="M3.34646 14.5132H0C0 17.6164 1.32467 20.4096 3.43884 22.36L5.79631 20.0025C4.29313 18.6502 3.34646 16.687 3.34646 14.5132Z" fill="#F7B809"/>
</svg>
