<svg width="30" height="27" viewBox="0 0 30 27" fill="none" xmlns="http://www.w3.org/2000/svg">
<path d="M14.9161 26.1514C14.5056 26.1514 14.1099 26.0027 13.8015 25.7325C12.6367 24.7141 11.5138 23.757 10.523 22.9127L10.518 22.9083C7.61323 20.433 5.10489 18.2953 3.35964 16.1895C1.4087 13.8354 0.5 11.6033 0.5 9.16491C0.5 6.79582 1.31236 4.61018 2.78727 3.01032C4.27978 1.39155 6.32772 0.5 8.55449 0.5C10.2188 0.5 11.743 1.02617 13.0846 2.06378C13.7617 2.58753 14.3754 3.22853 14.9161 3.97622C15.457 3.22853 16.0705 2.58753 16.7478 2.06378C18.0894 1.02617 19.6136 0.5 21.2779 0.5C23.5044 0.5 25.5526 1.39155 27.0451 3.01032C28.52 4.61018 29.3322 6.79582 29.3322 9.16491C29.3322 11.6033 28.4237 13.8354 26.4727 16.1893C24.7275 18.2953 22.2194 20.4328 19.3151 22.9079C18.3226 23.7535 17.1978 24.7121 16.0305 25.733C15.7223 26.0027 15.3263 26.1514 14.9161 26.1514ZM8.55449 2.18894C6.80506 2.18894 5.19794 2.88714 4.02879 4.15505C2.84226 5.44211 2.18872 7.22124 2.18872 9.16491C2.18872 11.2157 2.95093 13.0498 4.65989 15.1119C6.31166 17.105 8.76853 19.1987 11.6132 21.623L11.6185 21.6274C12.613 22.475 13.7403 23.4358 14.9137 24.4618C16.094 23.4338 17.2231 22.4715 18.2196 21.6226C21.0641 19.1983 23.5207 17.105 25.1725 15.1119C26.8812 13.0498 27.6434 11.2157 27.6434 9.16491C27.6434 7.22124 26.9899 5.44211 25.8034 4.15505C24.6344 2.88714 23.0271 2.18894 21.2779 2.18894C19.9963 2.18894 18.8197 2.59633 17.7808 3.39967C16.8549 4.1159 16.21 5.0213 15.8318 5.65482C15.6374 5.9806 15.2951 6.17506 14.9161 6.17506C14.5371 6.17506 14.1948 5.9806 14.0003 5.65482C13.6224 5.0213 12.9775 4.1159 12.0514 3.39967C11.0125 2.59633 9.83583 2.18894 8.55449 2.18894Z" fill="#01060D" stroke="#01060D" stroke-width="0.2"/>
</svg>
