<svg width="33" height="30" viewBox="0 0 33 30" fill="none" xmlns="http://www.w3.org/2000/svg">
<path d="M32.4477 3.01145V18.4033C32.4477 20.063 31.0959 21.4148 29.4362 21.4148H8.69065C8.55681 21.4148 8.42297 21.4014 8.30251 21.388C6.89716 21.214 5.79966 20.063 5.69258 18.6442L5.6792 18.4033V3.01145C5.6792 1.35181 7.03101 0 8.69065 0H29.4362C31.0959 0 32.4477 1.35181 32.4477 3.01145Z" fill="#ECEFF1"/>
<path d="M19.2307 0H8.69065C7.03101 0 5.6792 1.35181 5.6792 3.01145V18.4033L5.69258 18.6442C5.79966 20.063 6.89716 21.214 8.30251 21.388C8.42297 21.4014 8.55681 21.4148 8.69065 21.4148H19.2307V0Z" fill="#CDD0D2"/>
<path d="M32.4474 14.6421V18.4031C32.4474 20.0628 31.0956 21.4146 29.436 21.4146H8.69039C8.55655 21.4146 8.4227 21.4012 8.30225 21.3878L22.088 7.60203C22.9981 6.6919 24.4972 6.6919 25.4073 7.60203L32.4474 14.6421Z" fill="#388E3C"/>
<path d="M23.6339 6.92188C23.0704 6.94864 22.515 7.17618 22.088 7.60179L8.30225 21.3876C8.4227 21.4009 8.55655 21.4143 8.69039 21.4143H23.6339V6.92188Z" fill="#317C34"/>
<path d="M24.4972 21.4146H8.69045C8.55661 21.4146 8.42277 21.4013 8.30231 21.3879C6.89696 21.2139 5.79946 20.0628 5.69238 18.6441L12.0499 12.2866C12.96 11.3765 14.4591 11.3765 15.3692 12.2866L24.4972 21.4146Z" fill="#4CAF50"/>
<path d="M13.7095 11.604C13.1072 11.604 12.505 11.8315 12.0499 12.2866L5.69238 18.6441C5.79946 20.0628 6.89697 21.2139 8.30231 21.3879C8.42277 21.4013 8.55661 21.4146 8.69045 21.4146H13.7791V11.6053C13.7564 11.604 13.7323 11.604 13.7095 11.604Z" fill="#429846"/>
<path d="M12.3712 4.01514C10.8949 4.01514 9.69434 5.2157 9.69434 6.69198C9.69434 8.16827 10.8949 9.36883 12.3712 9.36883C13.8475 9.36883 15.048 8.16826 15.048 6.69198C15.048 5.2157 13.8475 4.01514 12.3712 4.01514Z" fill="#FFC107"/>
<path d="M12.3712 4.01514C10.8949 4.01514 9.69434 5.2157 9.69434 6.69198C9.69434 8.16827 10.8949 9.36883 12.3712 9.36883C12.3993 9.36883 12.4274 9.36883 12.4542 9.36749V4.01647C12.4274 4.01514 12.3993 4.01514 12.3712 4.01514Z" fill="#DEA806"/>
<path d="M8.69053 23.4224C6.54772 23.4224 4.6418 22.0505 3.94984 20.0081L3.90299 19.8542C3.7397 19.3135 3.67144 18.8584 3.67144 18.4033V9.2793L0.424427 20.1165C0.00683922 21.7106 0.958458 23.3635 2.5552 23.8039L23.2512 29.3463C23.5096 29.4132 23.7679 29.4453 24.0222 29.4453C25.3552 29.4453 26.5732 28.5606 26.9145 27.257L28.1191 23.4224L8.69053 23.4224Z" fill="#ECEFF1"/>
<path d="M3.67144 9.2793L0.424427 20.1165C0.00683919 21.7106 0.958459 23.3635 2.5552 23.8039L12.7071 26.5222L13.7324 23.4224H8.69053C6.54771 23.4224 4.6418 22.0505 3.94983 20.0081L3.90299 19.8542C3.7397 19.3135 3.67144 18.8584 3.67144 18.4033L3.67144 9.2793Z" fill="#CDD0D2"/>
</svg>
