<svg width="23" height="16" viewBox="0 0 23 16" fill="none" xmlns="http://www.w3.org/2000/svg">
<path d="M21.3178 8.55638H1.84508C1.35649 8.55638 0.959961 8.15985 0.959961 7.67126C0.959961 7.18267 1.35649 6.78613 1.84508 6.78613H21.3178C21.8064 6.78613 22.2029 7.18267 22.2029 7.67126C22.2029 8.15985 21.8064 8.55638 21.3178 8.55638Z" fill="#01060D"/>
<path d="M21.3178 1.77025H1.84508C1.35649 1.77025 0.959961 1.37371 0.959961 0.885124C0.959961 0.396534 1.35649 0 1.84508 0H21.3178C21.8064 0 22.2029 0.396534 22.2029 0.885124C22.2029 1.37371 21.8064 1.77025 21.3178 1.77025Z" fill="#01060D"/>
<path d="M21.3178 15.342H1.84508C1.35649 15.342 0.959961 14.9455 0.959961 14.4569C0.959961 13.9683 1.35649 13.5718 1.84508 13.5718H21.3178C21.8064 13.5718 22.2029 13.9683 22.2029 14.4569C22.2029 14.9455 21.8064 15.342 21.3178 15.342Z" fill="#01060D"/>
</svg>
