<svg width="22" height="25" viewBox="0 0 22 25" fill="none" xmlns="http://www.w3.org/2000/svg">
<path d="M19.9824 16.1297C19.838 16.0164 19.7687 15.8321 19.8028 15.6517C19.8645 15.1626 19.6954 14.6726 19.345 14.3258C18.9946 13.979 18.5028 13.8148 18.0144 13.8816C17.8339 13.9162 17.6492 13.8466 17.5364 13.7015C17.3255 13.4178 17.0256 13.2129 16.6845 13.1197L16.2604 10.2249C16.085 9.16371 15.1066 8.42766 14.0384 8.55325V5.3382C13.7892 -0.760483 5.08707 -0.771633 4.833 5.33823V8.55321C3.76478 8.42774 2.7865 9.16378 2.61108 10.2249L1.02375 21.052C0.92491 21.7627 1.13746 22.4816 1.60695 23.0243C2.07643 23.5671 2.75721 23.8809 3.47481 23.8854L15.3966 23.8855C16.1157 23.8861 16.7994 23.574 17.27 23.0304C17.7406 22.4869 17.9516 21.7655 17.8481 21.054C17.8285 20.9483 17.8134 20.9428 18.0463 20.9506C18.5353 21.0121 19.0251 20.8428 19.3717 20.4925C19.7183 20.1421 19.8824 19.6505 19.8157 19.1622C19.7815 18.9818 19.851 18.7974 19.9957 18.6843C20.3994 18.3827 20.636 17.9075 20.6334 17.4036C20.6307 16.8998 20.3892 16.4271 19.9824 16.1297ZM5.65978 5.33819C5.86301 0.331908 13.0087 0.331758 13.2117 5.33823V8.55321H5.65978V5.33819ZM15.3967 23.0587H3.47479C2.9968 23.0559 2.54326 22.847 2.23044 22.4855C1.91762 22.1241 1.77592 21.6453 1.84167 21.1718L3.42897 10.3452C3.48631 10.0306 3.66674 9.7518 3.93028 9.57063C4.19383 9.38946 4.51874 9.32085 4.83303 9.38001V11.1542C4.83303 11.3825 5.01811 11.5676 5.24641 11.5676C5.47471 11.5676 5.65979 11.3825 5.65979 11.1542L5.65979 9.37998H13.2117V11.1542C13.2117 11.3825 13.3968 11.5676 13.6251 11.5676C13.8534 11.5676 14.0385 11.3825 14.0385 11.1542L14.0385 9.37998H14.3218C14.8819 9.3821 15.3571 9.7913 15.4425 10.3448L15.8488 13.1173C15.5 13.2116 15.1942 13.4226 14.9823 13.7152C14.8693 13.8601 14.6847 13.9295 14.5043 13.8949C14.0142 13.8293 13.5218 13.9973 13.174 14.3487C12.8263 14.7001 12.6634 15.1943 12.7341 15.6836C12.7684 15.8639 12.6987 16.0482 12.5538 16.1608C12.1502 16.4625 11.9136 16.9378 11.9163 17.4418C11.919 17.9457 12.1607 18.4185 12.5676 18.7158C12.7119 18.8291 12.7812 19.0134 12.7472 19.1937C12.6817 19.6837 12.8497 20.1759 13.2011 20.5236C13.5524 20.8713 14.0464 21.0341 14.5356 20.9635C14.7161 20.9286 14.9008 20.9982 15.0134 21.1436C15.476 21.7802 16.3393 21.9747 17.0303 21.598C16.9359 22.4293 16.2332 23.0576 15.3967 23.0587ZM19.5073 18.0174C19.1168 18.3114 18.9207 18.797 18.9974 19.2797C19.0292 19.5122 18.9512 19.7462 18.7862 19.913C18.6212 20.0798 18.3881 20.1604 18.1553 20.1311C17.6723 20.0577 17.1881 20.2565 16.8962 20.6483C16.7502 20.8349 16.5268 20.9445 16.2899 20.9458C16.0529 20.9472 15.8284 20.8401 15.6803 20.6551C15.4306 20.321 15.0364 20.1261 14.6193 20.1307C14.3634 20.2174 14.081 20.169 13.8687 20.0019C13.6563 19.8349 13.5427 19.5718 13.5667 19.3027C13.6402 18.8198 13.4414 18.3358 13.0496 18.0441C12.8528 17.9027 12.7359 17.6755 12.7353 17.4333C12.7344 17.1937 12.8488 16.9684 13.0427 16.8277C13.4331 16.534 13.6292 16.0486 13.5524 15.5662C13.5186 15.3333 13.596 15.098 13.7615 14.9306C13.927 14.7632 14.1614 14.6832 14.3947 14.7144C14.8778 14.7882 15.3621 14.5893 15.6538 14.1973C15.8001 14.011 16.0233 13.9016 16.2601 13.9003C16.497 13.899 16.7214 14.0058 16.8698 14.1904C17.1636 14.5807 17.649 14.7768 18.1315 14.7003C18.3644 14.6663 18.5998 14.7436 18.7672 14.9091C18.9346 15.0746 19.0146 15.3091 18.9833 15.5424C18.9096 16.0254 19.1085 16.5097 19.5004 16.8015C19.6947 16.9425 19.8103 17.1676 19.8116 17.4077C19.813 17.6478 19.7 17.8742 19.5073 18.0174Z" fill="#0D6EFD" stroke="#0D6EFD" stroke-width="0.8"/>
</svg>
