<svg width="29" height="24" viewBox="0 0 29 24" fill="none" xmlns="http://www.w3.org/2000/svg">
<path d="M16.5041 0H5.81957C5.33455 0 4.94135 0.393211 4.94135 0.878223C4.94135 1.36324 5.33456 1.75644 5.81957 1.75644H10.3847C9.42151 2.35963 8.55308 3.10041 7.80737 3.95147H1.83818C1.35317 3.95152 0.959961 4.34479 0.959961 4.8298C0.959961 5.31481 1.35317 5.70802 1.83818 5.70802H6.5369C5.52367 7.42635 4.94129 9.42771 4.94129 11.5628C4.94129 14.0471 5.72903 16.3508 7.06755 18.2377H4.57572C4.09071 18.2377 3.6975 18.6309 3.6975 19.1159C3.6975 19.6009 4.09071 19.9941 4.57572 19.9941H8.60041C9.148 20.5078 9.74547 20.9687 10.3847 21.369H1.92877C1.44376 21.369 1.05055 21.7622 1.05055 22.2472C1.05055 22.7322 1.44376 23.1255 1.92877 23.1255H16.5041C22.8799 23.1255 28.0668 17.9384 28.0668 11.5627C28.0668 5.18701 22.8798 0 16.5041 0ZM16.5041 21.3691C11.0969 21.3691 6.69784 16.9701 6.69784 11.5628C6.69784 6.15555 11.0969 1.7565 16.5041 1.7565C21.9113 1.7565 26.3104 6.15555 26.3104 11.5628C26.3104 16.97 21.9113 21.3691 16.5041 21.3691Z" fill="black"/>
<path d="M16.504 4.38916C12.5486 4.38916 9.33057 7.60715 9.33057 11.5626C9.33057 13.9214 10.4751 16.0178 12.2379 17.326C12.2541 17.3396 12.2701 17.3534 12.2876 17.366C12.3071 17.3802 12.3272 17.3935 12.3475 17.4059C13.5209 18.243 14.9559 18.736 16.504 18.736C18.0521 18.736 19.487 18.243 20.6605 17.4059C20.6808 17.3935 20.7009 17.3802 20.7205 17.366C20.7378 17.3533 20.7539 17.3396 20.7701 17.326C22.5328 16.0178 23.6774 13.9214 23.6774 11.5626C23.6774 7.60721 20.4594 4.38916 16.504 4.38916ZM17.3822 6.21724C19.0961 6.49789 20.5419 7.58534 21.3154 9.07585L19.0411 9.81483C18.6461 9.2431 18.0632 8.81114 17.3823 8.60831L17.3822 6.21724ZM17.83 11.5625C17.83 12.2937 17.2352 12.8885 16.504 12.8885C15.7729 12.8885 15.178 12.2937 15.178 11.5625C15.178 10.8314 15.7729 10.2366 16.504 10.2366C17.2352 10.2366 17.83 10.8314 17.83 11.5625ZM15.6257 6.21724V8.60831C14.9447 8.81113 14.3619 9.2431 13.9668 9.81483L11.6926 9.07585C12.4661 7.58534 13.912 6.49783 15.6257 6.21724ZM12.6533 15.3685C11.6856 14.3895 11.0871 13.0446 11.0871 11.5625C11.0871 11.285 11.1081 11.0123 11.1486 10.7459L13.4235 11.4851C13.4229 11.5109 13.4215 11.5365 13.4215 11.5625C13.4215 12.2665 13.6592 12.9157 14.0579 13.4352L12.6533 15.3685ZM16.504 16.9795C15.6304 16.9795 14.8046 16.7714 14.0731 16.4025L15.478 14.4689C15.7992 14.5826 16.1443 14.6451 16.504 14.6451C16.8636 14.6451 17.2088 14.5826 17.53 14.4689L18.9349 16.4025C18.2034 16.7713 17.3776 16.9795 16.504 16.9795ZM20.3547 15.3685L18.9501 13.4352C19.3488 12.9157 19.5865 12.2665 19.5865 11.5626C19.5865 11.5366 19.5852 11.511 19.5845 11.4851L21.8594 10.7459C21.8998 11.0124 21.9209 11.2851 21.9209 11.5626C21.9209 13.0446 21.3225 14.3894 20.3547 15.3685Z" fill="black"/>
</svg>
