<svg width="26" height="25" viewBox="0 0 26 25" fill="none" xmlns="http://www.w3.org/2000/svg">
<path d="M24.9967 6.81271L23.1645 1.8895C22.9099 1.21185 22.2629 0.762215 21.539 0.76001H4.64549C3.92158 0.762215 3.27448 1.2119 3.02001 1.88961L1.18802 6.81282C0.960383 7.426 0.9387 8.07678 1.12704 8.64535C1.4638 9.66282 2.253 10.4668 3.26402 10.8225V20.9948C3.26602 22.5904 4.55902 23.8835 6.15465 23.8855H20.03C21.6257 23.8835 22.9187 22.5905 22.9207 20.9948V10.8224C23.9318 10.4667 24.7209 9.66271 25.0577 8.64524C25.2463 8.07667 25.2246 7.42589 24.9967 6.81271ZM18.234 6.24306C18.275 6.47514 18.2956 6.71034 18.2956 6.94599V7.55304C18.2956 8.83025 17.2603 9.86562 15.9831 9.86562C14.7059 9.86562 13.6705 8.83025 13.6705 7.55304L13.6705 1.91617H17.4705L18.234 6.24306ZM7.88907 6.94599C7.88907 6.70955 7.9097 6.47426 7.95071 6.24211L8.71428 1.91617H12.5142V7.55304C12.5142 8.83025 11.4789 9.86562 10.2017 9.86562C8.92445 9.86562 7.88907 8.83025 7.88907 7.55304V6.94599ZM2.22456 8.28139C2.11843 7.96161 2.13534 7.58312 2.27171 7.21575L4.10369 2.29281C4.18858 2.06686 4.40434 1.91695 4.6457 1.91622H7.54002L6.81183 6.04209C6.75924 6.3406 6.73281 6.64314 6.73281 6.94626V7.55304C6.73281 8.68763 5.90939 9.6549 4.78903 9.83607C3.66831 10.0171 2.58209 9.35852 2.22456 8.28139ZM21.7645 20.9948C21.7634 21.9523 20.9875 22.7282 20.03 22.7292H6.15465C5.19719 22.7282 4.42127 21.9523 4.42023 20.9948V11.0219C5.58323 11.0215 6.66865 10.4383 7.31092 9.46872C7.95291 10.4386 9.03852 11.0219 10.2016 11.0219C11.3647 11.0219 12.4503 10.4386 13.0923 9.46872C13.7343 10.4386 14.8199 11.0219 15.9831 11.0219C17.1462 11.0219 18.2318 10.4386 18.8738 9.46872C19.516 10.4383 20.6015 11.0215 21.7645 11.0219V20.9948ZM23.9601 8.28139C23.6026 9.35852 22.5164 10.0171 21.396 9.83612C20.2756 9.65511 19.452 8.68796 19.4519 7.55304V6.94599C19.4519 6.64276 19.4254 6.34022 19.3728 6.0417L18.6447 1.91617H21.539C21.7803 1.91689 21.996 2.06672 22.081 2.29259L23.9125 7.21553C24.0493 7.58312 24.0663 7.9615 23.9601 8.28139Z" fill="#0D6EFD" stroke="#0D6EFD" stroke-width="0.4"/>
<path d="M17.9259 14.8916L15.0653 14.2722L13.5921 11.743C13.4885 11.5652 13.2983 11.4558 13.0925 11.4558C12.8867 11.4558 12.6964 11.5652 12.5928 11.743L11.1196 14.2722L8.25877 14.8916C8.05757 14.9351 7.89469 15.0823 7.83106 15.278C7.76743 15.4738 7.81268 15.6886 7.94982 15.8421L9.90051 18.0249L9.60549 20.937C9.5848 21.1418 9.67448 21.3421 9.84098 21.463C10.0075 21.5839 10.2257 21.6072 10.414 21.5242L13.0924 20.3439L15.7709 21.5241C15.9592 21.6071 16.1774 21.5838 16.3439 21.4629C16.5104 21.342 16.6001 21.1417 16.5794 20.937L16.2844 18.0249L18.2347 15.8422C18.3719 15.6887 18.4171 15.4739 18.3535 15.2782C18.2899 15.0824 18.1271 14.9351 17.9259 14.8916ZM15.2526 17.4441C15.1445 17.5653 15.0922 17.7261 15.1083 17.8876L15.3288 20.0659L13.3255 19.1831C13.177 19.1176 13.0079 19.1176 12.8594 19.1831L10.8561 20.0658L11.0766 17.8876C11.0928 17.7261 11.0404 17.5653 10.9324 17.4441L9.47369 15.8119L11.6132 15.3486C11.7719 15.3142 11.9088 15.2148 11.9907 15.0746L13.0924 13.1826L14.1942 15.0745C14.2761 15.2147 14.413 15.3142 14.5717 15.3486L16.7112 15.8118L15.2526 17.4441Z" fill="#0D6EFD" stroke="#0D6EFD" stroke-width="0.4"/>
</svg>
