<svg width="19" height="13" viewBox="0 0 19 13" fill="none" xmlns="http://www.w3.org/2000/svg">
<path d="M4.70629 0.0805722C4.50932 -0.0325803 4.26625 -0.0241984 4.06928 0.0931445L0.297548 2.39809C0.113152 2.51125 0 2.7166 0 2.93452C0 3.15244 0.113152 3.35779 0.301739 3.47094L4.07347 5.77589C4.17405 5.83875 4.2872 5.86809 4.40036 5.86809C4.50513 5.86809 4.61409 5.84294 4.70629 5.78846C4.90325 5.67531 5.02898 5.46577 5.02898 5.23946V3.56314H14.2488C15.6359 3.56314 16.7633 4.69047 16.7633 6.07763C16.7633 6.42547 17.044 6.70625 17.3919 6.70625C17.7397 6.70625 18.0205 6.42547 18.0205 6.07763C18.0205 3.99898 16.3274 2.30589 14.2488 2.30589H5.02898V0.629568C5.02898 0.403264 4.90744 0.193725 4.70629 0.0805722ZM3.77173 4.12052L1.83558 2.93452L3.77173 1.74852V4.12052Z" fill="#808386"/>
<path d="M17.7188 9.52217L13.947 7.21722C13.7543 7.09988 13.5112 7.09569 13.31 7.20465C13.1131 7.3178 12.9873 7.52734 12.9873 7.75365V9.42997H3.76754C2.38038 9.42997 1.25305 8.30264 1.25305 6.91549C1.25305 6.56765 0.972269 6.28687 0.624431 6.28687C0.276594 6.28687 0 6.56765 0 6.91549C0 8.99413 1.69309 10.6872 3.77173 10.6872H12.9915V12.3635C12.9915 12.5898 13.1131 12.7994 13.3142 12.9125C13.4106 12.967 13.5154 12.9922 13.6201 12.9922C13.7333 12.9922 13.8465 12.9628 13.947 12.9L17.7188 10.595C17.9074 10.4819 18.0205 10.2765 18.0205 10.0586C18.0205 9.84068 17.9074 9.63533 17.7188 9.52217ZM14.2488 11.2446V8.87679L16.1849 10.0628L14.2488 11.2446Z" fill="#808386"/>
</svg>
