<svg width="26" height="26" viewBox="0 0 26 26" fill="none" xmlns="http://www.w3.org/2000/svg">
<path d="M21.8948 16.5822C20.4979 15.1853 18.8352 14.1512 17.021 13.5252C18.964 12.187 20.2405 9.94732 20.2405 7.41485C20.2405 3.32631 16.9142 0 12.8257 0C8.73714 0 5.41083 3.32631 5.41083 7.41485C5.41083 9.94732 6.68734 12.187 8.63038 13.5252C6.81625 14.1512 5.15352 15.1853 3.75657 16.5822C1.33412 19.0047 0 22.2255 0 25.6514H2.00401C2.00401 19.6843 6.85858 14.8297 12.8257 14.8297C18.7928 14.8297 23.6473 19.6843 23.6473 25.6514H25.6514C25.6514 22.2255 24.3172 19.0047 21.8948 16.5822ZM12.8257 12.8257C9.84216 12.8257 7.41485 10.3984 7.41485 7.41485C7.41485 4.43127 9.84216 2.00401 12.8257 2.00401C15.8092 2.00401 18.2365 4.43127 18.2365 7.41485C18.2365 10.3984 15.8092 12.8257 12.8257 12.8257Z" fill="#01060D"/>
</svg>
